# xmcd
#
# Track frame offsets: 
#        185
#        14060
#        33060
#        48812
#        60725
#        75255
#        91827
#        105300
#        118642
#        135197
#        148225
#        162950
#        177732
#        189797
#        207102
#
# Disc length: 2998 seconds
#
# Revision: 0
# Processed by: cddbd v1.5.2PL0 Copyright (c) Steve Scherf et al.
# Submitted via: ExactAudioCopy v1.3
#
DISCID=b70bb40f
DTITLE=Zydeco Force - Shaggy Dog Two-Step
DYEAR=1992
DGENRE=Zydeco
TTITLE0=Double Clutching
TTITLE1=I'm a Farmer
TTITLE2=Forget About Me
TTITLE3=Shaggy Dog Two Step
TTITLE4=Shake That Thang
TTITLE5=T-Boy Broussard
TTITLE6=Oh, My Lucille
TTITLE7=You Worry Me
TTITLE8=B-Flat
TTITLE9=Making a Mess Tonight
TTITLE10=I Don't Like It
TTITLE11=Pop That Zydeco Coochie
TTITLE12=Zydeco Extravaganza
TTITLE13=Zydeco Run
TTITLE14=For the Good Times
EXTD=
EXTT0=
EXTT1=
EXTT2=
EXTT3=
EXTT4=
EXTT5=
EXTT6=
EXTT7=
EXTT8=
EXTT9=
EXTT10=
EXTT11=
EXTT12=
EXTT13=
EXTT14=
PLAYORDER=
